Coordinates
version=1
nRows=14
nColumns=40
inDegrees=yes

Units are S.I. units (second, meters, Newtons, ...)
If the header above contains a line with 'inDegrees', this indicates whether rotational values are in degrees (yes) or radians (no).

endheader
time	pelvis_tilt	pelvis_list	pelvis_rotation	pelvis_tx	pelvis_ty	pelvis_tz	hip_flexion_r	hip_adduction_r	hip_rotation_r	knee_angle_r	knee_angle_r_beta	ankle_angle_r	subtalar_angle_r	mtp_angle_r	hip_flexion_l	hip_adduction_l	hip_rotation_l	knee_angle_l	knee_angle_l_beta	ankle_angle_l	subtalar_angle_l	mtp_angle_l	lumbar_extension	lumbar_bending	lumbar_rotation	arm_flex_r	arm_add_r	arm_rot_r	elbow_flex_r	pro_sup_r	wrist_flex_r	wrist_dev_r	arm_flex_l	arm_add_l	arm_rot_l	elbow_flex_l	pro_sup_l	wrist_flex_l	wrist_dev_l
      4.05000000	    -15.67797962	      3.60467384	      8.31205437	      0.92189093	      0.97231642	     -0.37015734	     22.15702572	     -7.31870506	     -0.91806451	    107.48001992	      1.87588023	     -6.92168597	      0.00000000	      0.00000000	     38.15048157	     12.34682845	     -2.38217424	     45.51101596	      0.79431707	     11.07630852	      0.00000000	      0.00000000	     -0.29174194	     -6.63267095	     -4.35190388	    -29.80851024	    -23.44894923	     -0.84588898	     89.49703214	     62.20460573	      0.00000000	      0.00000000	    -28.98538885	    -15.83978008	     -8.40112620	    110.74476415	     56.07472140	      0.00000000	      0.00000000
      4.06000000	    -15.45257543	      3.50574267	      7.88053800	      0.91907086	      0.97025347	     -0.36992458	     25.81903039	     -7.60126591	      0.13287272	    109.64507173	      1.91366751	     -6.32267776	      0.00000000	      0.00000000	     35.76458550	     12.16008964	     -1.52295119	     46.24475330	      0.80712321	     12.27529576	      0.00000000	      0.00000000	     -0.95941884	     -6.29420223	     -5.49632988	    -30.52536081	    -23.95407564	     -0.75995015	     88.47445494	     62.16469480	      0.00000000	      0.00000000	    -26.82440753	    -15.92011715	     -8.33246094	    109.91557842	     55.98494432	      0.00000000	      0.00000000
      4.07000000	    -15.27644033	      3.31801486	      7.71266671	      0.91720066	      0.97010273	     -0.36999359	     29.35685888	     -7.65105738	      1.04007940	    110.79750132	      1.93378120	     -5.70020366	      0.00000000	      0.00000000	     33.10830050	     11.80709748	     -1.15086767	     46.51376391	      0.81181833	     13.18665843	      0.00000000	      0.00000000	     -1.36045229	     -5.90998406	     -6.82366941	    -31.67415310	    -24.43101937	     -0.71251398	     87.86536080	     62.10104795	      0.00000000	      0.00000000	    -25.33130715	    -16.04605272	     -8.35458434	    109.67252482	     55.93203226	      0.00000000	      0.00000000
      4.08000000	    -15.65561597	      3.29272340	      6.51515124	      0.91524733	      0.97097839	     -0.36926202	     33.77126818	     -7.40230954	      2.70961066	    111.36699853	      1.94372080	     -4.03246017	      0.00000000	      0.00000000	     30.38870521	     11.63530178	     -0.04385159	     45.48277804	      0.79382423	     15.68250891	      0.00000000	      0.00000000	     -0.83790978	     -5.61158225	     -6.83122623	    -32.96450727	    -24.98918799	     -0.68533279	     88.36693351	     62.00293534	      0.00000000	      0.00000000	    -23.83257318	    -15.77405185	     -8.50623144	    110.14925783	     55.88718831	      0.00000000	      0.00000000
      4.09000000	    -16.15988117	      3.21662774	      5.81130571	      0.91452628	      0.97255025	     -0.36908308	     37.89351905	     -7.08434559	      3.86826490	    111.02011337	      1.93766651	     -3.04685336	      0.00000000	      0.00000000	     27.56696258	     11.20210708	     -0.11887492	     44.03378141	      0.76853447	     16.36323538	      0.00000000	      0.00000000	      0.05357176	     -5.33138835	     -7.34717508	    -34.86858296	    -25.49980849	     -1.30114160	     89.91934430	     61.80291220	      0.00000000	      0.00000000	    -23.52385535	    -15.67271005	     -8.76331763	    111.90403188	     55.87299811	      0.00000000	      0.00000000
      4.10000000	    -16.59441015	      2.82387893	      5.10248217	      0.91425457	      0.97575157	     -0.36940421	     41.74385521	     -6.61495978	      4.37880671	    109.85917502	      1.91740432	     -2.50515560	      0.00000000	      0.00000000	     24.51785108	     10.49935760	      0.13991878	     42.13981414	      0.73547850	     15.90155096	      0.00000000	      0.00000000	      0.85906317	     -4.62603081	     -7.91027673	    -36.66173151	    -26.16122439	     -1.86443328	     91.54881200	     61.62232499	      0.00000000	      0.00000000	    -23.42710748	    -15.23515882	     -9.05842100	    114.31968718	     55.86765887	      0.00000000	      0.00000000
      4.11000000	    -17.11476886	      2.36607036	      4.38714064	      0.91469297	      0.97980873	     -0.36967348	     45.28173458	     -5.95370694	      4.69832018	    107.87695174	      1.88280799	     -2.04497001	      0.00000000	      0.00000000	     21.40218123	      9.73451978	      0.49114663	     39.79458159	      0.69454647	     14.65146582	      0.00000000	      0.00000000	      1.90623057	     -3.82382796	     -8.54018649	    -38.50153229	    -26.81953161	     -2.54313263	     93.59496249	     61.43762215	      0.00000000	      0.00000000	    -23.66538213	    -14.78565269	     -9.44902242	    117.13725975	     55.85709069	      0.00000000	      0.00000000
      4.12000000	    -17.62434894	      1.99952854	      3.78571334	      0.91545140	      0.98510758	     -0.36991797	     48.28903662	     -5.41066944	      4.72825927	    105.03366818	      1.83318334	     -1.56101054	      0.00000000	      0.00000000	     18.43753029	      9.01809180	      0.73844413	     37.66726171	      0.65741774	     12.69149733	      0.00000000	      0.00000000	      3.06454796	     -3.16251304	     -9.20486070	    -40.15612226	    -27.42872001	     -3.20373200	     95.46356668	     61.29966793	      0.00000000	      0.00000000	    -23.87756006	    -14.46513202	     -9.78544921	    119.80487244	     55.86296886	      0.00000000	      0.00000000
      4.13000000	    -18.13678208	      1.41017817	      2.92943127	      0.91691210	      0.99077781	     -0.37020594	     51.10738153	     -4.60913458	      4.44456836	    101.98974623	      1.78005688	     -0.98410937	      0.00000000	      0.00000000	     15.08831260	      8.07804146	      0.99983576	     34.19839569	      0.59687460	      8.39222150	      0.00000000	      0.00000000	      4.09361099	     -1.98544488	     -9.72832913	    -42.06213851	    -27.96192064	     -4.23658457	     98.09979170	     61.03447654	      0.00000000	      0.00000000	    -24.63539977	    -13.94681761	    -10.20205444	    122.84176480	     55.82506759	      0.00000000	      0.00000000
      4.14000000	    -18.51181397	      1.40928212	      2.55999639	      0.91799525	      0.99728298	     -0.37057749	     53.13340227	     -4.62957421	      4.27673755	     97.90677069	      1.70879551	     -0.42005868	      0.00000000	      0.00000000	     12.73209529	      7.76745033	      0.80502514	     33.19973848	      0.57944475	      6.40177162	      0.00000000	      0.00000000	      4.89239674	     -1.81866374	    -10.29720297	    -43.41709487	    -28.20033988	     -4.57585822	     99.11135929	     60.95755437	      0.00000000	      0.00000000	    -24.84427759	    -14.04169767	    -10.33281893	    124.61859852	     55.84632843	      0.00000000	      0.00000000
      4.15000000	    -18.03884936	      0.61093818	      1.45827941	      0.92250785	      1.00558817	     -0.37012960	     53.63537450	     -3.45076608	      3.34562946	     93.45720421	      1.63113592	      0.56156727	      0.00000000	      0.00000000	      7.70252862	      6.36030016	      0.01762178	     27.52588739	      0.48041736	     -2.60670986	      0.00000000	      0.00000000	      5.14612862	     -0.31021053	    -10.04483953	    -45.71811781	    -28.17101324	     -6.10632132	    101.72445009	     60.28760444	      0.00000000	      0.00000000	    -25.40257816	    -13.49458744	     -9.96712577	    127.30766176	     55.73612252	      0.00000000	      0.00000000
      4.16000000	    -18.51244309	     -0.15524786	      0.87130177	      0.92545169	      1.01194964	     -0.37030228	     54.88506229	     -2.76976179	      2.14628535	     88.50235253	      1.54465745	      1.26993266	      0.00000000	      0.00000000	      5.13301156	      5.15425602	     -0.61029996	     25.05579918	      0.43730619	     -7.72634073	      0.00000000	      0.00000000	      6.32876772	      0.92336005	    -10.37949333	    -47.48289885	    -28.34753715	     -6.95739160	    103.48449608	     60.06139323	      0.00000000	      0.00000000	    -26.21089870	    -13.36331588	     -9.52714387	    130.09657776	     55.79544053	      0.00000000	      0.00000000
      4.17000000	    -18.85309320	      0.19922639	      0.56864176	      0.92746624	      1.01782126	     -0.37032471	     55.88867965	     -3.14396897	      1.53100811	     83.26559756	      1.45325883	      1.68602188	      0.00000000	      0.00000000	      3.29946764	      5.23609138	     -1.02168467	     24.46756610	      0.42703959	     -9.85755857	      0.00000000	      0.00000000	      7.16953103	      0.69645567	    -10.61761762	    -48.76845514	    -28.30801485	     -7.23986187	    104.45125712	     60.00108334	      0.00000000	      0.00000000	    -26.83714518	    -13.73676198	     -9.59100993	    131.66745329	     55.83862582	      0.00000000	      0.00000000
      4.18000000	    -19.05148157	     -1.28930896	     -0.29594875	      0.93195161	      1.02458914	     -0.36982415	     55.91242942	     -1.66713139	     -0.57033209	     77.32654413	      1.34960279	      2.38326476	      0.00000000	      0.00000000	     -0.00578049	      3.28415729	     -1.68263407	     20.03967133	      0.34975825	    -19.53023802	      0.00000000	      0.00000000	      8.08238969	      2.92443432	    -10.57912852	    -50.74472054	    -28.29071561	     -8.58956649	    106.58263131	     59.61474725	      0.00000000	      0.00000000	    -27.54913735	    -13.24906065	     -8.78625430	    133.78996312	     55.93831485	      0.00000000	      0.00000000
